<svg xmlns="http://www.w3.org/2000/svg" version="1.1" xmlns:xlink="http://www.w3.org/1999/xlink" xmlns:svgjs="http://svgjs.dev/svgjs" width="1440" height="450" preserveAspectRatio="none" viewBox="0 0 1440 450"><g mask="url(&quot;#SvgjsMask1021&quot;)" fill="none"><rect width="1440" height="450" x="0" y="0" fill="rgba(28, 28, 28, 1)"></rect><path d="M61 450L511 0L682 0L232 450z" fill="url(&quot;#SvgjsLinearGradient1022&quot;)"></path><path d="M329.8 450L779.8 0L1202.8 0L752.8 450z" fill="url(&quot;#SvgjsLinearGradient1022&quot;)"></path><path d="M665.6 450L1115.6 0L1297.1 0L847.1 450z" fill="url(&quot;#SvgjsLinearGradient1022&quot;)"></path><path d="M1417 450L967 0L739 0L1189 450z" fill="url(&quot;#SvgjsLinearGradient1023&quot;)"></path><path d="M1094.2 450L644.2 0L347.20000000000005 0L797.2 450z" fill="url(&quot;#SvgjsLinearGradient1023&quot;)"></path><path d="M781.4 450L331.4 0L-81.10000000000002 0L368.9 450z" fill="url(&quot;#SvgjsLinearGradient1023&quot;)"></path><path d="M1017.0460184518633 450L1440 27.04601845186329L1440 450z" fill="url(&quot;#SvgjsLinearGradient1022&quot;)"></path><path d="M0 450L422.9539815481367 450L 0 27.04601845186329z" fill="url(&quot;#SvgjsLinearGradient1023&quot;)"></path></g><defs><mask id="SvgjsMask1021"><rect width="1440" height="450" fill="#ffffff"></rect></mask><linearGradient x1="0%" y1="100%" x2="100%" y2="0%" id="SvgjsLinearGradient1022"><stop stop-color="rgba(33, 35, 37, 1)" offset="0"></stop><stop stop-opacity="0" stop-color="rgba(33, 35, 37, 1)" offset="0.66"></stop></linearGradient><linearGradient x1="100%" y1="100%" x2="0%" y2="0%" id="SvgjsLinearGradient1023"><stop stop-color="rgba(33, 35, 37, 1)" offset="0"></stop><stop stop-opacity="0" stop-color="rgba(33, 35, 37, 1)" offset="0.66"></stop></linearGradient></defs></svg>